<svg xmlns="http://www.w3.org/2000/svg" width="135" height="33" viewBox="0 0 135 33">
  <path d="M114.5 0h-95C8.8 0 0 8.8 0 19.5S8.8 39 19.5 39h95c10.7 0 19.5-8.8 19.5-19.5S125.2 0 114.5 0z" fill="#FFF"/>
  <path d="M33.8 18c0-.5.4-.6.7-.6h2.8c.4 0 .6.2.7.7.5 2.7 2.4 4.1 5.4 4.1 2.7 0 4.4-1.6 4.4-3.8 0-2.4-1.7-3.3-4.6-4-4.7-1.1-7.6-2.8-7.6-7.4 0-4.4 3.3-7.2 8.3-7.2 5.3 0 8.4 3.3 8.7 7.7 0 .3 0 .5-.1.7-.1.2-.4.4-.7.4h-2.8c-.4 0-.6-.2-.7-.6-.4-2.5-2-3.9-4.7-3.9-2.2 0-3.9 1.4-3.9 3.5 0 2.2 1.6 3 4.5 3.8 4.4 1.1 7.7 2.9 7.7 7.6 0 4.8-3.9 7.6-9 7.6-5.2 0-8.9-3.1-9.1-7.6zm98-3.8c0 6.3-4.6 11.3-11.2 11.3-6.5 0-11.1-5-11.1-11.3 0-6.3 4.6-11.3 11.1-11.3 6.6 0 11.2 5 11.2 11.3zm-3.6 0c0-4.7-3.3-7.9-7.6-7.9-4.2 0-7.5 3.2-7.5 7.9 0 4.7 3.3 7.9 7.5 7.9 4.3 0 7.6-3.2 7.6-7.9zm-22 8.6c0 .3-.1.6-.4.8-.3.2-.5.2-.8.2h-2.4c-.5 0-.8-.3-.8-.8V24c0-.3-.4-.4-.6-.2-1.7 1.8-4.1 2.8-6.4 2.8-5.5 0-10-5-10-11.3 0-6.3 4.4-11.3 10-11.3 2.4 0 4.7 1 6.4 2.8.2.2.6.1.6-.2V8c0-.5.3-.8.8-.8h2.4c.3 0 .5.1.8.2.3.2.4.4.4.8v14.6zm-3.6-8.6c0-4.7-3.3-7.9-7.4-7.9s-7.4 3.2-7.4 7.9c0 4.7 3.3 7.9 7.4 7.9s7.4-3.2 7.4-7.9zm-26.1-5.9V8c0-.5.3-.8.8-.8h2.4c.3 0 .5.1.8.2.3.2.4.4.4.7v14.6c0 .3-.1.6-.4.8-.3.2-.5.2-.8.2h-2.4c-.5 0-.8-.3-.8-.8v-.4c0-.3-.4-.4-.6-.2-1.7 1.9-4.1 2.9-6.5 2.9-5.5 0-9.9-5-9.9-11.3 0-6.3 4.4-11.3 9.9-11.3 2.4 0 4.8 1 6.5 2.9.2.2.6.1.6-.2zm-3.6 5.9c0-4.7-3.3-7.9-7.4-7.9s-7.4 3.2-7.4 7.9c0 4.7 3.3 7.9 7.4 7.9s7.4-3.2 7.4-7.9zM52.4 8c0-.5.3-.8.8-.8h2.3c.3 0 .5.1.8.2.3.2.4.4.4.8v14.6c0 .3-.1.6-.4.8-.3.2-.5.2-.8.2h-2.4c-.5 0-.8-.3-.8-.8-.1 0-.1-14.9-.1-15zm0-7c0-.5.3-.8.8-.8h2.3c.3 0 .6.1.8.2.3.2.4.4.4.8v2.6c0 .3-.1.6-.4.8-.3.2-.5.2-.8.2h-2.4c-.5 0-.8-.3-.8-.8V.9zm-6.5 7c0-.5.3-.8.8-.8h1.3c.3 0 .4.2.5.3l7.4 9.7c.2.2.6.1.6-.2V8c0-.5.3-.8.8-.8h2.3c.3 0 .5.1.8.2.3.2.4.4.4.8v14.6c0 .3-.1.6-.4.8-.3.2-.5.2-.8.2h-1.3c-.3 0-.4-.2-.5-.3l-7.4-10.4c-.2-.2-.6-.1-.6.2v9.5c0 .5-.3.8-.8.8h-2.3c-.3 0-.5-.1-.8-.2-.3-.2-.4-.4-.4-.8V8h.2zm-8.2 14.7l-.8.7c-1.7 1.3-3.7 2-5.6 2-4.7 0-8.2-3.1-8.2-7.4 0-4.7 3.5-7.3 8.2-7.3 1.9 0 3.9.7 5.6 2.1.3.2.3.5.1.8l-1.1 1.6c-.2.3-.5.3-.8.1-1.2-.9-2.5-1.4-3.8-1.4-2.6 0-4.6 1.9-4.6 4.1 0 2.4 2 4.2 4.6 4.2 1.3 0 2.6-.5 3.8-1.4.3-.2.6-.2.8.1l1.1 1.6c.2.1.1.4-.1.7.3.3.2.3-.2.5zM94 17.1l-3.3-8.4c-.1-.4-.7-.4-.8 0l-3.3 8.4c-.1.3.1.6.4.6h6.6c.3 0 .5-.3.4-.6z" fill="#072654"/>
  <path d="M95.9 22.8l1.1-1.8c.2-.3.5-.3.8-.1 0 0 1.5 1.3 3.1 1.3 1.2 0 2.3-.6 2.3-1.7 0-2.7-7.5-2.1-7.5-7.7 0-2.7 2.4-4.9 5.6-4.9 2.4 0 4.3 1.2 4.3 1.2.3.2.4.5.2.8l-1 1.7c-.2.3-.5.4-.8.2 0 0-1.3-1-2.8-1-1.3 0-2.2.7-2.2 1.6 0 2.6 7.5 1.9 7.5 7.5 0 2.7-2.3 5.1-5.7 5.1-2.8 0-4.8-1.6-4.8-1.6-.2-.1-.3-.4-.1-.6z" fill="#007DFF"/>
</svg> 